<svg width="166" height="64" viewBox="0 0 166 64" fill="none" xmlns="http://www.w3.org/2000/svg">
<rect width="166" height="64" fill="#1E1E1E"/>
<g id="Exemplo de Aplica&#195;&#167;&#195;&#163;o" clip-path="url(#clip0_0_1)">
<rect width="1440" height="1830.75" transform="translate(-100 -32)" fill="#0E1015"/>
<g id="Frame 18">
<rect width="1440" height="128" transform="translate(-100 -32)" fill="#0E1015"/>
<g id="Vector">
<path d="M107.467 0.10106C101.841 1.11753 97.4771 4.83293 95.6719 10.1256C95.4616 10.774 95.2163 11.6678 95.1637 12.0884C95.041 12.8245 94.9008 12.9822 92.7627 14.8399C86.6989 20.1151 81.0382 27.1954 77.4806 33.9602C76.2538 36.2735 76.061 37.0096 76.3414 38.1838C76.6218 39.3755 77.8311 40.6023 78.9877 40.9002C79.6011 41.058 89.5906 41.1105 119.103 41.1105H158.395L158.273 42.0043C157.922 44.6507 156.275 46.7888 153.646 47.998C152.822 48.3836 152.822 48.3836 135.823 48.4712C118.911 48.5764 118.823 48.5764 117.421 48.9619C111.567 50.5918 107.326 55.1659 106.31 60.9844C106.205 61.5627 106.117 62.3689 106.117 62.7895L106.103 63.6498H109.846C114.017 63.6498 113.495 63.7183 113.741 61.9833C113.968 60.3009 115.318 58.303 116.948 57.2514C118.876 56.0247 117.509 56.1123 136.348 56.0071C155.381 55.902 154.084 55.9896 157.081 54.5876C161.865 52.3794 165.073 47.963 165.686 42.7754C165.966 40.392 165.931 31.8045 165.616 29.1582C163.828 13.8936 155.276 3.81645 141.606 0.889703C138.154 0.153636 136.576 0.0134289 131.792 0.0309543C128.55 0.0309543 126.587 0.118585 124.974 0.346416C122.714 0.644348 118.805 1.34536 117.701 1.67835C117.211 1.81855 116.983 1.76597 116.264 1.41546C114.652 0.591767 112.496 0.083533 110.323 0.0134313C109.219 -0.0216195 107.922 0.0134328 107.467 0.10106ZM111.9 7.67204C114.757 8.53079 116.79 10.9318 117.228 13.9812L117.351 14.8224H102.384L102.489 13.7534C102.875 9.49469 107.659 6.41021 111.9 7.67204ZM99.7554 22.7965C101.35 23.5325 102.191 25.3902 101.736 27.1077C101.42 28.2469 100.176 29.4211 98.9842 29.7015C96.5307 30.2974 94.0596 28.0716 94.4452 25.6356C94.8658 23.0243 97.3719 21.6749 99.7554 22.7965Z" fill="url(#paint0_linear_0_1)"/>
<path d="M0 42.8348H12.0044C13.5545 42.8348 14.9086 42.9982 16.0665 43.325C17.2338 43.6519 18.205 44.1094 18.9801 44.6977C19.7645 45.2861 20.3528 45.9911 20.745 46.8129C21.1372 47.6346 21.3333 48.5405 21.3333 49.5303C21.3333 50.7536 21.0438 51.8415 20.4649 52.794C19.8859 53.7372 19.0268 54.4889 17.8875 55.0492L22.2578 63.6638H13.111L9.80521 56.0998H8.0963V63.6498H0V42.8348ZM8.58656 53.5645C9.24958 53.5645 9.84256 53.4711 10.3655 53.2843C10.8885 53.0975 11.332 52.8361 11.6962 52.4999C12.0604 52.1544 12.3406 51.7482 12.5367 51.2812C12.7328 50.805 12.8308 50.2867 12.8308 49.7264C12.8308 49.1661 12.7328 48.6525 12.5367 48.1856C12.3406 47.7093 12.0604 47.3031 11.6962 46.967C11.332 46.6214 10.8885 46.3553 10.3655 46.1685C9.84256 45.9818 9.24958 45.8884 8.58656 45.8884H8.11031L8.0963 53.5645H8.58656Z" fill="white"/>
<path d="M31.8949 48.0875L29.4857 42.8348H38.0162L48.2136 63.6638H39.0668L37.5259 60.3301H29.3176L27.7908 63.6638H24.2469L31.8949 48.0875ZM36.0552 57.1223L33.4218 51.4073L30.8024 57.1223H36.0552Z" fill="white"/>
<path d="M54.7271 46.0285H48.7879V42.8208H68.7625V46.0285H62.8234V63.6498H54.7271V46.0285Z" fill="white"/>
<path d="M71.8021 42.8348H79.9125L79.8984 63.6498H71.8021V42.8348Z" fill="white"/>
<path d="M85.2493 42.8348H90.32L103.529 53.9286L103.543 42.8348H106.625V63.6498H101.554L88.3309 52.5979V63.6498H85.2493V42.8348Z" fill="white"/>
<path d="M110.729 53.2563C110.729 52.2664 110.855 51.3139 111.107 50.3988C111.368 49.4743 111.747 48.6152 112.242 47.8214C112.737 47.0277 113.344 46.3039 114.063 45.6503C114.782 44.9966 115.599 44.4363 116.514 43.9694C117.438 43.5024 118.456 43.1429 119.568 42.8908C120.679 42.6293 121.874 42.4986 123.153 42.4986C123.975 42.4986 124.76 42.5499 125.507 42.6527C126.263 42.7554 126.973 42.9001 127.636 43.0869C128.299 43.2643 128.91 43.4744 129.471 43.7172C130.04 43.9507 130.554 44.1981 131.012 44.4596L129.807 46.8129C129.284 46.5607 128.686 46.3506 128.014 46.1825C127.351 46.0051 126.66 45.9164 125.941 45.9164C124.979 45.9164 124.087 46.0892 123.265 46.4347C122.444 46.7802 121.734 47.2704 121.136 47.9055C120.539 48.5405 120.067 49.3109 119.722 50.2167C119.385 51.1132 119.217 52.1217 119.217 53.2423C119.217 54.3535 119.385 55.3621 119.722 56.2679C120.058 57.1644 120.52 57.9348 121.108 58.5791C121.706 59.2141 122.411 59.7091 123.223 60.0639C124.045 60.4094 124.932 60.5822 125.885 60.5822V53.5364H134.051L132.594 56.1838V61.8429L132.608 61.8709C132.151 62.1417 131.586 62.4032 130.914 62.6553C130.241 62.9074 129.489 63.1362 128.658 63.3416C127.837 63.5378 126.959 63.6965 126.025 63.8179C125.091 63.9393 124.134 64 123.153 64C121.239 64 119.511 63.7199 117.971 63.1596C116.439 62.5899 115.136 61.8195 114.063 60.8483C112.989 59.8678 112.162 58.7285 111.583 57.4305C111.014 56.1231 110.729 54.7317 110.729 53.2563Z" fill="white"/>
<path d="M137.469 59.0274C138.459 59.5316 139.495 59.9098 140.579 60.162C141.662 60.4141 142.67 60.5402 143.604 60.5402C144.678 60.5402 145.463 60.3861 145.958 60.0779C146.462 59.7698 146.714 59.3495 146.714 58.8172C146.714 58.6492 146.681 58.4764 146.616 58.299C146.56 58.1215 146.443 57.9488 146.266 57.7807C146.098 57.6033 145.859 57.4305 145.551 57.2624C145.252 57.085 144.86 56.9122 144.375 56.7441L141.867 55.8897C140.074 55.2734 138.725 54.4423 137.819 53.3964C136.913 52.3411 136.46 51.0898 136.46 49.6424C136.46 48.7085 136.657 47.8121 137.049 46.9529C137.441 46.0845 138.034 45.3234 138.828 44.6697C139.622 44.0067 140.621 43.4791 141.825 43.0869C143.039 42.6947 144.459 42.4986 146.084 42.4986C146.887 42.4986 147.657 42.5453 148.395 42.6387C149.133 42.732 149.824 42.8534 150.468 43.0028C151.122 43.1523 151.719 43.325 152.261 43.5211C152.803 43.7079 153.279 43.8947 153.69 44.0814L152.177 46.8129C151.878 46.6261 151.561 46.4627 151.224 46.3226C150.897 46.1825 150.566 46.0658 150.23 45.9724C149.903 45.879 149.581 45.809 149.263 45.7623C148.946 45.7156 148.656 45.6923 148.395 45.6923C147.947 45.6923 147.554 45.753 147.218 45.8744C146.882 45.9864 146.597 46.1405 146.364 46.3366C146.14 46.5234 145.967 46.7382 145.845 46.981C145.733 47.2144 145.677 47.4479 145.677 47.6813C145.677 47.8868 145.724 48.0875 145.817 48.2837C145.92 48.4704 146.088 48.6572 146.322 48.8439C146.565 49.0214 146.877 49.2035 147.26 49.3902C147.652 49.5677 148.138 49.7544 148.717 49.9505L150.398 50.5108C152.219 51.1178 153.61 51.9536 154.572 53.0182C155.534 54.0827 156.015 55.3714 156.015 56.8842C156.015 57.9114 155.781 58.8593 155.314 59.7277C154.857 60.5962 154.171 61.3479 153.255 61.9829C152.34 62.6086 151.201 63.0989 149.838 63.4537C148.484 63.7992 146.91 63.972 145.117 63.972C144.258 63.972 143.427 63.9253 142.624 63.8319C141.83 63.7479 141.05 63.6171 140.285 63.4397C139.528 63.2623 138.781 63.0382 138.043 62.7673C137.306 62.4965 136.568 62.179 135.83 61.8148L137.469 59.0274Z" fill="white"/>
</g>
</g>
</g>
<defs>
<linearGradient id="paint0_linear_0_1" x1="82.9381" y1="-0.822749" x2="82.9381" y2="63.4582" gradientUnits="userSpaceOnUse">
<stop stop-color="#D5224E"/>
<stop offset="1" stop-color="#FF003F"/>
</linearGradient>
<clipPath id="clip0_0_1">
<rect width="1440" height="1830.75" fill="white" transform="translate(-100 -32)"/>
</clipPath>
</defs>
</svg>
